<?xml version="1.0" encoding="UTF-8"?>
<svg id="Layer_2" data-name="Layer 2" xmlns="http://www.w3.org/2000/svg" viewBox="0 0 646.59 1127.35">
  <defs>
    <style>
      .cls-1 {
        fill: #221f1f;
      }

      .cls-2 {
        fill: #fff;
      }

      .cls-3 {
        fill: none;
      }

      .cls-4 {
        fill: #eac7cb;
      }
    </style>
  </defs>
  <g id="Layer_1-2" data-name="Layer 1">
    <g>
      <g>
        <path class="cls-2" d="M509.48,433.61c3.19-4.18,8.86-9,17.44-16.31,30.5-25.94,93.97-79.93,79.06-142.78-14.86-62.63-80.86-70.9-81.52-70.98-3.88-.44-7.41-2.49-9.72-5.64-2.31-3.15-3.2-7.13-2.46-10.96.54-2.88,12.82-71.72-39.14-101.07-14.62-8.26-29.27-12.45-43.54-12.45-43.68,0-72.93,39.32-73.22,39.72-3.03,4.13-8.05,6.32-13.14,5.66-5.08-.65-9.41-3.99-11.28-8.75-10.61-26.87-40.93-54.07-78.37-54.07-9.67,0-19.46,1.8-29.13,5.34-44.15,14.39-64.75,48.92-58.5,97.39.59,4.6-1.12,9.19-4.58,12.28-3.45,3.09-8.2,4.27-12.72,3.15-6.83-1.7-13.73-2.55-20.51-2.55-48.88,0-88.31,45.85-90.91,86.84-4.49,70.71,51.37,120.72,85.06,144.24,3.92,2.74,6.18,7.28,6,12.06-.59,14.91-6.11,150.83-20.45,328.75-11.22,139.16-23.91,329.64-27.47,383.89h472.63c-5.56-144.27-19.77-314.56-31.25-452.28-10.18-122.06-17.53-210.25-15.09-234.36.26-2.58,1.23-5.03,2.8-7.09ZM175.52,291.2c-10.55,12.23-30.17,12.6-43.82.83-13.65-11.77-16.17-31.23-5.62-43.46,10.55-12.23,30.17-12.6,43.82-.83,13.65,11.77,16.17,31.23,5.62,43.46ZM247.32,118.58c16.14-3.55,32.44,8.17,36.41,26.18,3.97,18.02-5.9,35.5-22.04,39.06-16.14,3.55-32.44-8.17-36.41-26.19-3.97-18.02,5.9-35.5,22.04-39.06ZM393.78,516.14c-24.28,6.79-47.05,8.99-66.39,8.99-34.67,0-58.32-7.08-59.83-7.55-8.65-2.66-13.5-11.83-10.84-20.48,2.66-8.64,11.81-13.46,20.44-10.85.94.27,49.9,14.52,107.8-1.67,8.74-2.45,17.75,2.65,20.19,11.37,2.44,8.71-2.66,17.75-11.37,20.19ZM429.39,357.18c-12.38,32.07-40.37,43.49-62.44,43.49h0c-6.85,0-13.27-1.05-18.56-3.03-8.1-3.03-21.48-4.63-27.11-5.09-5.64.36-19.05,1.69-27.21,4.57-22.61,7.94-64.82.26-80.21-42-13.97-38.37,18.22-64.29,33.69-76.74l1.23-.99c3.85-3.11,7.34-6.28,10.71-9.34,14.27-12.95,30.45-27.62,62.22-27.62.05,0,.98,0,1.03,0,32.45.31,48.52,15.46,62.7,28.82,3.31,3.12,6.73,6.36,10.53,9.54l1.2,1.01c15.23,12.75,46.92,39.28,32.23,77.38ZM448.65,186.63c-9.59,15.2-28.4,20.56-42.01,11.97-13.62-8.59-16.88-27.87-7.29-43.07,9.59-15.2,28.4-20.56,42.01-11.97,13.62,8.59,16.88,27.87,7.29,43.07ZM482.88,310.61c-9.22-13.15-4.79-32.14,9.88-42.43,14.67-10.29,34.04-7.97,43.26,5.17,9.22,13.15,4.79,32.14-9.88,42.43-14.67,10.29-34.04,7.97-43.26-5.17Z"/>
        <g>
          <path class="cls-4" d="M397.16,279.81l-1.2-1.01c-3.79-3.19-7.22-6.42-10.53-9.54-14.18-13.37-30.25-28.51-62.7-28.82-.05,0-.97,0-1.03,0-31.77,0-47.94,14.68-62.22,27.62-3.37,3.06-6.86,6.23-10.71,9.34l-1.23.99c-15.47,12.45-47.65,38.37-33.69,76.74,15.39,42.26,57.6,49.94,80.21,42,8.16-2.88,21.56-4.21,27.21-4.57,5.63.46,19.01,2.05,27.11,5.09,5.29,1.98,11.7,3.03,18.56,3.03h0c22.07,0,50.06-11.43,62.44-43.49,14.7-38.09-16.99-64.62-32.23-77.38Z"/>
          <path class="cls-4" d="M126.08,248.57c-10.55,12.23-8.03,31.69,5.62,43.46,13.65,11.77,33.27,11.4,43.82-.83,10.55-12.23,8.03-31.69-5.62-43.46-13.65-11.77-33.27-11.4-43.82.83Z"/>
          <path class="cls-4" d="M261.69,183.82c16.14-3.56,26.01-21.04,22.04-39.06-3.97-18.02-20.27-29.74-36.41-26.18-16.14,3.56-26.01,21.04-22.04,39.06,3.97,18.02,20.27,29.74,36.41,26.19Z"/>
          <path class="cls-4" d="M441.36,143.56c-13.62-8.59-32.43-3.23-42.01,11.97-9.59,15.2-6.32,34.48,7.29,43.07,13.62,8.59,32.43,3.23,42.01-11.97,9.59-15.2,6.32-34.48-7.29-43.07Z"/>
          <path class="cls-4" d="M526.14,315.79c14.67-10.29,19.1-29.29,9.88-42.43-9.22-13.15-28.58-15.46-43.26-5.17-14.67,10.29-19.1,29.29-9.88,42.43,9.22,13.14,28.58,15.46,43.26,5.17Z"/>
          <path class="cls-1" d="M384.96,484.59c-57.9,16.19-106.86,1.94-107.8,1.67-8.63-2.61-17.79,2.21-20.44,10.85-2.66,8.65,2.19,17.82,10.84,20.48,1.51.46,25.16,7.55,59.83,7.55,19.34,0,42.12-2.2,66.39-8.99,8.71-2.44,13.8-11.48,11.37-20.19-2.44-8.72-11.44-13.81-20.19-11.37Z"/>
        </g>
      </g>
      <path class="cls-3" d="M506.67,440.71c.26-2.58,1.23-5.03,2.8-7.09,3.19-4.18,8.86-9,17.44-16.31,30.5-25.94,93.97-79.93,79.06-142.78-14.86-62.63-80.86-70.9-81.52-70.98-3.88-.44-7.41-2.49-9.72-5.64-2.31-3.15-3.2-7.13-2.46-10.96.54-2.88,12.82-71.72-39.14-101.07-14.62-8.26-29.27-12.45-43.54-12.45-43.68,0-72.93,39.32-73.22,39.72-3.03,4.13-8.05,6.32-13.14,5.66-5.08-.65-9.41-3.99-11.28-8.75-10.61-26.87-40.93-54.07-78.37-54.07-9.67,0-19.46,1.8-29.13,5.34-44.15,14.39-64.75,48.92-58.5,97.39.59,4.6-1.12,9.19-4.58,12.28-3.45,3.08-8.2,4.27-12.72,3.15-6.83-1.7-13.73-2.55-20.51-2.55-48.88,0-88.31,45.85-90.91,86.84-4.49,70.71,51.37,120.72,85.06,144.24,3.92,2.74,6.18,7.28,6,12.06-.59,14.91-6.11,150.83-20.45,328.75-11.22,139.16-23.91,329.64-27.47,383.89h472.63c-5.56-144.27-19.77-314.56-31.25-452.28-10.18-122.06-17.53-210.25-15.09-234.36Z"/>
      <path class="cls-1" d="M107.86,743.46c14.35-177.91,19.87-313.83,20.45-328.75.19-4.78-2.07-9.32-6-12.06-33.69-23.52-89.55-73.54-85.06-144.24,2.6-40.99,42.03-86.84,90.91-86.84,6.77,0,13.67.86,20.51,2.55,4.52,1.12,9.27-.06,12.72-3.15,3.46-3.09,5.17-7.68,4.58-12.28-6.25-48.47,14.35-83,58.5-97.39,9.66-3.54,19.46-5.34,29.13-5.34,37.44,0,67.76,27.2,78.37,54.07,1.88,4.76,6.21,8.1,11.28,8.75,5.08.66,10.11-1.53,13.14-5.66.29-.4,29.54-39.72,73.22-39.72,14.26,0,28.91,4.19,43.54,12.45,51.96,29.35,39.67,98.19,39.14,101.07-.74,3.84.15,7.81,2.46,10.96,2.31,3.15,5.84,5.2,9.72,5.64.66.08,66.66,8.35,81.52,70.98,14.91,62.85-48.55,116.84-79.06,142.78-8.59,7.31-14.26,12.13-17.44,16.31-1.57,2.06-2.54,4.52-2.8,7.09-2.45,24.11,4.91,112.3,15.09,234.36,11.49,137.72,25.69,308.02,31.25,452.28h28.08c-5.56-145.14-19.81-316.25-31.34-454.61-8.75-104.91-16.38-196.35-15.42-224.66,2.7-2.5,6.92-6.09,10.79-9.38,34.75-29.56,107.07-91.07,88.18-170.65-.87-3.65-1.88-7.12-2.99-10.49,9.27-10.43,23.78-30.9,11.64-46.33-10.77-13.66-30.68-7.6-42.64-2.12-20-18.41-43.3-26.94-57.8-30.7,1.55-21.75.15-64.51-28.54-96.26,3.55-10.18,7.43-26.27,1.28-37.08-3.24-5.7-8.66-9.36-15.24-10.3-14.97-2.15-30.22,10.66-36.05,16.21-11.09-3.61-22.24-5.64-33.35-5.64-37.33,0-65.61,20.22-81.5,35.3-18.3-27.93-51.81-52.74-94.5-52.74-1.03,0-2.05.11-3.08.14-5.25-10.69-18.19-31.74-37.09-27.47-19.25,4.32-20.68,29.17-19.84,43.53-36.81,19.85-57.14,55.32-56.77,99.74-2.9-.23-5.79-.35-8.67-.35-33.09,0-62.07,15.06-83.17,36.82-6.44-3.57-19.14-9.18-30.22-5.26-6.37,2.26-11.11,7.16-13.35,13.82-5.87,17.4,8.18,35.96,13.06,41.7-2.83,8.67-4.69,17.44-5.24,26.07-5.07,79.97,51.94,135.98,90.72,164.53-1.41,33.69-7.14,159.72-20.07,320.04-11.38,141.08-24.24,334.62-27.63,386.15h28.14c3.56-54.25,16.25-244.73,27.47-383.89Z"/>
    </g>
  </g>
</svg>