<?xml version="1.0" encoding="UTF-8"?>
<svg id="Layer_2" data-name="Layer 2" xmlns="http://www.w3.org/2000/svg" viewBox="0 0 614.97 1080.37">
  <defs>
    <style>
      .cls-1 {
        fill: #221f1f;
      }

      .cls-2 {
        fill: #fff;
      }

      .cls-3 {
        fill: none;
      }

      .cls-4 {
        fill: #eac7cb;
      }
    </style>
  </defs>
  <g id="Layer_1-2" data-name="Layer 1">
    <g>
      <g>
        <path class="cls-2" d="M572.61,200.46c-22.6-102.94-93.87-121.13-96.89-121.85-3.22-.77-6.14-2.67-8.11-5.34-26.72-36.22-59.23-43.82-81.79-43.82-23.68,0-42.22,8.09-47.04,11.78-4.76,3.65-11.33,3.86-16.31.54-13.65-9.08-28.89-13.68-45.3-13.68-28.45,0-59.14,14.48-78.19,36.88-2.34,2.75-5.64,4.49-9.23,4.87-102.53,10.76-127.44,143.62-133.4,200.24-9.17,87.25-6.69,170.24-4.28,250.51,2.07,69.26,4.03,134.68-1.69,197.44-16.66,182.89-21.21,319.4-22.29,362.35h558.05c-.88-94.19-4.82-208.24-7.73-292.61-1.2-34.89-2.26-65.51-2.91-88.93-1.41-50.77,1.82-108.59,5.24-169.81,6.39-114.24,12.99-232.37-8.13-328.56ZM160.9,273.61c-18.66,3.31-37.08-12.58-41.14-35.49s7.78-44.15,26.45-47.46c18.66-3.31,37.08,12.58,41.14,35.49,4.06,22.91-7.78,44.15-26.45,47.46ZM357.99,150.57c4.01-22.91,22.39-38.84,41.06-35.58,18.67,3.27,30.56,24.49,26.55,47.4-4.01,22.91-22.39,38.84-41.06,35.58-18.67-3.27-30.56-24.49-26.55-47.4ZM262.03,114.58c18.94-.63,34.93,17.71,35.7,40.96.77,23.25-13.96,42.61-32.9,43.24-18.94.63-34.93-17.71-35.7-40.96-.77-23.25,13.96-42.61,32.9-43.24ZM373.3,570.29c-18.79,5.37-38.04,7.11-55.06,7.11-30.05,0-53.17-5.41-54.66-5.76-8.8-2.11-14.22-10.95-12.12-19.74,2.11-8.8,10.95-14.23,19.73-12.12.95.21,49.79,11.4,93.1-.98,8.66-2.46,17.76,2.54,20.26,11.24,2.49,8.7-2.55,17.76-11.24,20.26ZM391.57,444.8c-5.93.97-11.27,1.36-16.08,1.34-17.26-.08-26.11-6.31-37.17-9.68-15.22-4.64-23.6-5.11-23.6-5.11,0,0-8.39.51-23.58,5.23-11.04,3.43-19.87,9.7-37.12,9.87-4.82.05-10.16-.31-16.09-1.25-25.84-4.1-53.38-29.72-46.98-70.08,5.76-36.28,26.79-46.48,48.57-74.61,21.77-28.13,43.59-35.99,74.79-36.07,31.2-.08,53.06,7.67,74.97,35.69,21.91,28.03,42.99,38.11,48.93,74.37,6.61,40.33-20.8,66.09-46.62,70.32ZM522.37,251.89c-4.01,22.91-22.39,38.84-41.06,35.58-18.67-3.27-30.56-24.49-26.55-47.4,4.01-22.91,22.39-38.84,41.06-35.58,18.67,3.27,30.56,24.49,26.55,47.4Z"/>
        <ellipse class="cls-4" cx="153.56" cy="232.13" rx="34.32" ry="42.12" transform="translate(-38.12 30.33) rotate(-10.04)"/>
        <path class="cls-4" d="M264.83,198.77c18.94-.63,33.67-19.99,32.9-43.24-.77-23.25-16.76-41.59-35.7-40.96-18.94.63-33.67,19.99-32.9,43.24.77,23.25,16.76,41.59,35.7,40.96Z"/>
        <path class="cls-4" d="M384.54,197.97c18.67,3.27,37.06-12.66,41.06-35.58,4.01-22.91-7.88-44.14-26.55-47.4-18.67-3.27-37.06,12.66-41.06,35.58-4.01,22.91,7.88,44.14,26.55,47.4Z"/>
        <path class="cls-4" d="M495.82,204.48c-18.67-3.27-37.06,12.66-41.06,35.58-4.01,22.91,7.88,44.14,26.55,47.4,18.67,3.27,37.06-12.66,41.06-35.58,4.01-22.91-7.88-44.14-26.55-47.4Z"/>
        <path class="cls-4" d="M389.27,300.11c-21.91-28.03-43.77-35.77-74.97-35.69-31.2.08-53.02,7.93-74.79,36.07-21.77,28.13-42.81,38.33-48.57,74.61-6.41,40.36,21.14,65.98,46.98,70.08,5.94.94,11.27,1.3,16.09,1.25,17.25-.17,26.08-6.44,37.12-9.87,15.2-4.72,23.58-5.23,23.58-5.23,0,0,8.38.47,23.6,5.11,11.06,3.37,19.91,9.6,37.17,9.68,4.82.02,10.15-.36,16.08-1.34,25.82-4.23,53.23-29.99,46.62-70.32-5.94-36.26-27.03-46.34-48.93-74.37Z"/>
        <path class="cls-1" d="M364.29,538.79c-43.3,12.38-92.15,1.2-93.1.98-8.78-2.11-17.63,3.32-19.73,12.12-2.1,8.8,3.32,17.64,12.12,19.74,1.49.36,24.61,5.76,54.66,5.76,17.02,0,36.27-1.74,55.06-7.11,8.7-2.49,13.73-11.56,11.24-20.26-2.5-8.7-11.59-13.71-20.26-11.24Z"/>
        <path class="cls-3" d="M264.83,198.77c18.94-.63,33.67-19.99,32.9-43.24-.77-23.25-16.76-41.59-35.7-40.96-18.94.63-33.67,19.99-32.9,43.24.77,23.25,16.76,41.59,35.7,40.96Z"/>
        <path class="cls-3" d="M384.54,197.97c18.67,3.27,37.06-12.66,41.06-35.58,4.01-22.91-7.88-44.14-26.55-47.4-18.67-3.27-37.06,12.66-41.06,35.58-4.01,22.91,7.88,44.14,26.55,47.4Z"/>
        <path class="cls-3" d="M364.29,538.79c-43.3,12.38-92.15,1.2-93.1.98-8.78-2.11-17.63,3.32-19.73,12.12-2.1,8.8,3.32,17.64,12.12,19.74,1.49.36,24.61,5.76,54.66,5.76,17.02,0,36.27-1.74,55.06-7.11,8.7-2.49,13.73-11.56,11.24-20.26-2.5-8.7-11.59-13.71-20.26-11.24Z"/>
        <ellipse class="cls-3" cx="153.56" cy="232.13" rx="34.32" ry="42.12" transform="translate(-38.12 30.33) rotate(-10.04)"/>
        <path class="cls-3" d="M389.27,300.11c-21.91-28.03-43.77-35.77-74.97-35.69-31.2.08-53.02,7.93-74.79,36.07-21.77,28.13-42.81,38.33-48.57,74.61-6.41,40.36,21.14,65.98,46.98,70.08,5.94.94,11.27,1.3,16.09,1.25,17.25-.17,26.08-6.44,37.12-9.87,15.2-4.72,23.58-5.23,23.58-5.23,0,0,8.38.47,23.6,5.11,11.06,3.37,19.91,9.6,37.17,9.68,4.82.02,10.15-.36,16.08-1.34,25.82-4.23,53.23-29.99,46.62-70.32-5.94-36.26-27.03-46.34-48.93-74.37Z"/>
        <path class="cls-3" d="M495.82,204.48c-18.67-3.27-37.06,12.66-41.06,35.58-4.01,22.91,7.88,44.14,26.55,47.4,18.67,3.27,37.06-12.66,41.06-35.58,4.01-22.91-7.88-44.14-26.55-47.4Z"/>
      </g>
      <path class="cls-3" d="M575.5,698.82c-1.41-50.77,1.82-108.59,5.24-169.81,6.39-114.24,12.99-232.37-8.13-328.56-22.6-102.94-93.87-121.13-96.9-121.85-3.22-.77-6.14-2.67-8.11-5.34-26.72-36.22-59.23-43.82-81.79-43.82-23.68,0-42.22,8.09-47.04,11.78-4.76,3.65-11.33,3.86-16.31.54-13.65-9.08-28.89-13.68-45.3-13.68-28.45,0-59.14,14.48-78.19,36.88-2.34,2.75-5.64,4.49-9.23,4.87-102.53,10.76-127.44,143.62-133.4,200.24-9.17,87.25-6.69,170.24-4.28,250.51,2.07,69.26,4.03,134.68-1.69,197.44-16.66,182.89-21.21,319.4-22.29,362.35h558.05c-.88-94.19-4.82-208.24-7.73-292.61-1.2-34.89-2.26-65.51-2.91-88.93Z"/>
      <path class="cls-1" d="M603.57,698.05c-1.38-49.59,1.82-106.84,5.21-167.46,6.19-110.72,13.2-236.21-8.74-336.15-23.19-105.57-92.85-135.27-112.77-141.7C454.13,10.41,414.01,1.36,385.81,1.36c-22.41,0-42.62,5.72-55.54,12.3-16.3-9.07-34.12-13.66-53.1-13.66-35.08,0-71.3,16.2-95.86,42.59C97.81,54.52,42.23,135.94,28.43,267.14c-9.37,89.13-6.86,173.09-4.43,254.28,2.05,68.39,3.99,132.98-1.58,194.05C5.59,900.18,1.07,1037.84,0,1080.37h267.36c-10.86-161.2-68-132.69-116.23-321.24-18.63-72.82-63.98-102.03-97.15-113.78.61-40.3-.63-81.79-1.91-124.77-2.4-80.26-4.89-163.26,4.28-250.51,5.96-56.62,30.87-189.48,133.4-200.24,3.59-.37,6.89-2.12,9.23-4.87,19.04-22.4,49.73-36.88,78.19-36.88,16.41,0,31.64,4.6,45.3,13.68,4.98,3.31,11.55,3.11,16.31-.54,4.82-3.69,23.35-11.78,47.04-11.78s55.08,7.6,81.79,43.82c1.97,2.66,4.89,4.57,8.11,5.34,3.02.72,74.29,18.91,96.9,121.85,21.12,96.19,14.52,214.32,8.13,328.56-3.42,61.22-6.65,119.04-5.24,169.81.65,23.42,1.71,54.04,2.91,88.93,2.91,84.38,6.85,198.42,7.73,292.61h28.07c-.88-94.61-4.82-208.96-7.74-293.58-1.2-34.82-2.26-65.37-2.91-88.74Z"/>
    </g>
  </g>
</svg>