<?xml version="1.0" encoding="UTF-8"?>
<svg id="Layer_2" data-name="Layer 2" xmlns="http://www.w3.org/2000/svg" viewBox="0 0 211.01 249.1">
  <defs>
    <style>
      .cls-1 {
        fill: #fff;
      }
    </style>
  </defs>
  <g id="Layer_1-2" data-name="Layer 1">
    <path class="cls-1" d="M201.07,178.16l-37.02-9.08c-1.23-15.1-5.04-44.41-16.51-65.98-1.52-2.86-1.72-6.26-.16-9.1,1.82-3.29,3.28-6.81,4.31-10.52,6.46-23.33,2.6-48.35-10.57-68.65l-5.88-9.06c-3.15-4.85-9.37-7.19-14.66-4.86-6.74,2.96-8.97,11.06-5.14,16.96l6.22,9.58c9.57,14.74,12.37,32.91,7.68,49.84-2.34,8.47-8.71,15.25-16.47,17.96-1.45.43-14.29,4.19-18.49,5.73-12.6,4.61-34.9,23.84-39.25,27.65-2.57,2.24-4.01,5.51-3.95,8.91.05,3.41,1.61,6.62,4.25,8.77l32.29,26.41c2.15,1.76,4.75,2.62,7.33,2.62.58,0,1.16-.1,1.73-.19L7.4,224.24c-6.11,3.35-9.21,10.88-6.31,17.22,2.22,4.87,6.97,7.65,11.88,7.65,2.12,0,4.28-.52,6.27-1.61l100.66-55.26h29.08l27.01,6.63-21.02,28.95c-3.82,5.26-3.78,12.74.8,17.36,5.82,5.88,15.23,4.96,19.88-1.45l32.85-45.24c2.55-3.52,3.19-8.07,1.69-12.15-1.5-4.08-4.92-7.15-9.14-8.18ZM80.99,137.26c6.57-5.24,13.53-10.34,18.27-12.99l1.73,29.35-20-16.36Z"/>
    <path class="cls-1" d="M91.78,92.38c16.01,0,28.99-12.98,28.99-28.99s-12.98-28.99-28.99-28.99-28.99,12.98-28.99,28.99,12.98,28.99,28.99,28.99Z"/>
  </g>
</svg>