<?xml version="1.0" encoding="UTF-8"?>
<svg id="Layer_2" data-name="Layer 2" xmlns="http://www.w3.org/2000/svg" viewBox="0 0 299.29 261.03">
  <defs>
    <style>
      .cls-1 {
        fill: #fff;
      }
    </style>
  </defs>
  <g id="Layer_1-2" data-name="Layer 1">
    <path class="cls-1" d="M231.97,126.4H67.31C30.13,126.4,0,156.54,0,193.72s30.13,67.31,67.31,67.31c31.05,0,56.92-21.13,64.69-49.72h35.27c7.78,28.59,33.64,49.72,64.7,49.72,37.18,0,67.31-30.14,67.31-67.31s-30.14-67.31-67.31-67.31ZM97.97,200.75c0,1.41-1.14,2.54-2.55,2.54h-18.54v18.54c0,1.41-1.14,2.55-2.54,2.55h-14.07c-1.4,0-2.54-1.14-2.54-2.55v-18.54h-18.54c-1.41,0-2.55-1.14-2.55-2.54v-14.06c0-1.41,1.14-2.55,2.55-2.55h18.54v-18.54c0-1.41,1.14-2.55,2.54-2.55h14.07c1.4,0,2.54,1.14,2.54,2.55v18.54h18.54c1.41,0,2.55,1.14,2.55,2.55v14.06ZM166,175.89c0,1.4-1.14,2.54-2.54,2.54h-27.64c-1.41,0-2.55-1.14-2.55-2.54v-14.07c0-1.4,1.14-2.54,2.55-2.54h27.64c1.4,0,2.54,1.14,2.54,2.54v14.07ZM231.97,157.57c6.71,0,12.16,5.45,12.16,12.16s-5.45,12.16-12.16,12.16-12.16-5.45-12.16-12.16,5.45-12.16,12.16-12.16ZM207.98,205.88c-6.7,0-12.15-5.46-12.15-12.16s5.45-12.16,12.15-12.16,12.16,5.46,12.16,12.16-5.45,12.16-12.16,12.16ZM231.97,229.86c-6.7,0-12.16-5.45-12.16-12.15s5.45-12.16,12.16-12.16,12.16,5.45,12.16,12.16-5.45,12.15-12.16,12.15ZM255.96,205.88c-6.7,0-12.16-5.46-12.16-12.16s5.45-12.16,12.16-12.16,12.16,5.46,12.16,12.16-5.45,12.16-12.16,12.16Z"/>
    <path class="cls-1" d="M119.03,42.01h31.95c17.7,0,32.1-14.4,32.1-32.1,0-5.48-4.44-9.91-9.91-9.91s-9.91,4.43-9.91,9.91c0,6.77-5.51,12.28-12.28,12.28h-31.95c-18.13,0-32.88,14.75-32.88,32.87s14.75,32.88,32.88,32.88h7.67c7.2,0,13.05,5.86,13.05,13.06v16.27h19.83v-16.27c0-18.13-14.75-32.87-32.88-32.87h-7.67c-7.2,0-13.06-5.86-13.06-13.06s5.86-13.06,13.06-13.06Z"/>
  </g>
</svg>