<?xml version="1.0" encoding="UTF-8"?>
<svg id="Layer_2" data-name="Layer 2" xmlns="http://www.w3.org/2000/svg" viewBox="0 0 242.89 261.89">
  <defs>
    <style>
      .cls-1 {
        fill: #fff;
      }
    </style>
  </defs>
  <g id="Layer_1-2" data-name="Layer 1">
    <path class="cls-1" d="M150.51,157.78l-59.36,4.42c-4.1.31-7.27,3.72-7.27,7.83v54.9c-1.5-.32-3.03-.54-4.63-.54-11.22,0-20.35,8.41-20.35,18.75s9.13,18.75,20.35,18.75,20.34-8.41,20.34-18.75v-47.3l43.66-3.24v27.92c-1.5-.32-3.03-.54-4.63-.54-11.22,0-20.35,8.41-20.35,18.75s9.13,18.75,20.35,18.75,20.34-8.41,20.34-18.75v-73.11c0-2.19-.91-4.27-2.5-5.75-1.6-1.48-3.73-2.24-5.93-2.08Z"/>
    <path class="cls-1" d="M242.69,157.5c-1.21-12.67-8.51-23.6-18.87-30.52l1.67-23.79c1.78-25.49-7.26-50.26-25.43-69.76C180.23,12.19,151.58,0,121.45,0S62.66,12.19,42.84,33.45c-18.18,19.5-27.21,44.27-25.43,69.74l1.62,23.28c-2.91,1.92-5.65,4.09-8.03,6.7C2.89,142.1-.96,153.69.2,165.79c2.04,21.42,21.27,38.2,43.79,38.2h8.25c5.52,0,10.01-4.49,10.01-10.01v-64.67c0-5.52-4.49-10.01-10.01-10.01h-9.8l-1.24-17.77c-1.32-18.81,5.46-37.21,19.08-51.82,15.33-16.43,37.62-25.86,61.18-25.86s45.83,9.42,61.15,25.85c13.62,14.61,20.4,33.02,19.09,51.84l-1.26,17.91c-.52-.02-1.01-.14-1.53-.14h-8.26c-5.51,0-10.01,4.49-10.01,10.01v64.67c0,5.52,4.5,10.01,10.01,10.01h9.89c11.91,0,23.33-5.05,31.34-13.87,8.13-8.93,11.97-20.52,10.81-32.63Z"/>
    <path class="cls-1" d="M72.77,77.67c-3.22,3.22-3.22,8.47,0,11.69,1.56,1.55,3.63,2.42,5.85,2.42s4.29-.86,5.84-2.42c9.87-9.88,23.01-15.31,37-15.33h.04c13.97,0,27.09,5.42,36.93,15.27,3.22,3.21,8.47,3.21,11.69,0,3.22-3.23,3.22-8.47,0-11.69-26.82-26.81-70.49-26.8-97.34.05Z"/>
    <path class="cls-1" d="M150.17,109.24c1.57-1.56,2.42-3.64,2.42-5.85s-.86-4.29-2.42-5.85c-15.83-15.83-41.6-15.8-57.45.05-3.22,3.23-3.22,8.47,0,11.69,1.56,1.56,3.64,2.42,5.84,2.42s4.29-.86,5.85-2.42c9.41-9.41,24.7-9.44,34.09-.05,3.21,3.21,8.47,3.21,11.68,0Z"/>
    <path class="cls-1" d="M109.03,126.31c0,6.86,5.56,12.43,12.43,12.43s12.43-5.56,12.43-12.43-5.56-12.43-12.43-12.43-12.43,5.56-12.43,12.43Z"/>
  </g>
</svg>