<?xml version="1.0" encoding="UTF-8"?>
<svg id="Layer_2" data-name="Layer 2" xmlns="http://www.w3.org/2000/svg" viewBox="0 0 293.53 221.31">
  <defs>
    <style>
      .cls-1 {
        fill: #fff;
      }
    </style>
  </defs>
  <g id="_ëîé_1" data-name="‘ëîé_1">
    <g>
      <path class="cls-1" d="M273.11,32.91h-72.39l-8.82-23.47c-2.13-5.68-7.56-9.44-13.63-9.44h-62.99c-6.07,0-11.5,3.76-13.63,9.44l-8.82,23.47h-30.64v-5.14c0-2.67-2.16-4.83-4.83-4.83h-25.37c-2.67,0-4.83,2.16-4.83,4.83v5.14h-6.73C9.15,32.91,0,42.06,0,53.34v147.55c0,11.28,9.15,20.43,20.43,20.43h252.68c11.28,0,20.43-9.15,20.43-20.43V53.34c0-11.28-9.15-20.43-20.43-20.43ZM122.89,12.38h46.19c2.92,0,5.28,2.37,5.28,5.28s-2.37,5.28-5.28,5.28h-46.19c-2.92,0-5.28-2.37-5.28-5.28s2.37-5.28,5.28-5.28Z"/>
      <circle cx="146.77" cy="127.11" r="72.51" transform="translate(-46.89 141.01) rotate(-45)"/>
      <path class="cls-1" d="M146.77,70.39c-31.33,0-56.72,25.4-56.72,56.72s25.4,56.72,56.72,56.72,56.72-25.4,56.72-56.72-25.4-56.72-56.72-56.72ZM178.39,127.11c0,17.44-14.19,31.62-31.62,31.62s-31.62-14.18-31.62-31.62,14.18-31.62,31.62-31.62,31.62,14.18,31.62,31.62Z"/>
    </g>
  </g>
</svg>