<?xml version="1.0" encoding="UTF-8"?>
<svg id="Layer_2" data-name="Layer 2" xmlns="http://www.w3.org/2000/svg" viewBox="0 0 249.61 271.44">
  <defs>
    <style>
      .cls-1 {
        fill: #fff;
      }
    </style>
  </defs>
  <g id="_ëîé_1" data-name="‘ëîé_1">
    <path class="cls-1" d="M149.08,117.15c20.51-38.17,47.51-51.84,78.71-49.65-4.37-5.76-10.03-9.78-16.94-12.12,10.58-4.35,23.26-5.54,37.58-4.26-40.07-47.21-95.7-28.28-111.14,36.31C141.11-3.4,58.25-23.16,21.28,26.76c13.73-3.54,27.3-3.39,40.74,0-5.27,2.69-8.97,6.01-11.07,9.99,35.5,2.02,56.55,25.37,69.08,61.3C45.64,44.26-4.84,102.04.37,139.14c8.7-8.87,17.21-14.65,28.94-17.36-3.6,5.06-4.93,9.49-5.82,15.24,27.69-23.73,59.55-27.32,93.87-19.04-54.68,6.06-75.96,35.54-65.54,87.23,3.38-16.22,10.39-30.4,23.47-41.18-1.03,6.91-1.04,14,0,21.25,11.03-21.21,27.92-34.95,50.04-42.07,11.06,30.48,16.04,64.32,17.07,100.33-12.62,5.7-22.95,15.58-29.22,27.88h118.48c-9.27-18.18-28.07-30.67-49.81-30.92-6.21-34.44-16.81-67.4-32.27-97.62,24.35-1.39,47.16,5.43,66.92,28.56.78-5.53-.06-13.39-1.66-19.26,10.24,10.07,20.99,25.27,26.73,42.18,33.04-79.7-43.34-107.93-92.49-77.21Z"/>
  </g>
</svg>